<?xml version="1.0" encoding="UTF-8"?>
<svg version="1.1" xmlns="http://www.w3.org/2000/svg" width="512" height="512">
<path d="M0 0 C1.01790619 0.00215515 2.03581238 0.0043103 3.08456421 0.00653076 C17.69363523 0.05620146 32.02575853 0.30709809 46.375 3.3125 C47.34985352 3.51117676 48.32470703 3.70985352 49.32910156 3.91455078 C97.7109774 14.03517194 141.69928269 35.9516877 177.375 70.3125 C178.3640332 71.26068604 178.3640332 71.26068604 179.37304688 72.22802734 C188.86130305 81.37247479 197.6012044 90.66984009 205.375 101.3125 C206.23306152 102.46355017 207.09113451 103.61459177 207.94921875 104.765625 C213.98736829 112.95680614 219.34595521 121.47054105 224.375 130.3125 C224.73948242 130.94430176 225.10396484 131.57610352 225.47949219 132.22705078 C247.08534998 169.97532572 256.85198095 212.74189997 256.6875 255.9375 C256.68534485 256.95540619 256.6831897 257.97331238 256.68096924 259.02206421 C256.63129854 273.63113523 256.38040191 287.96325853 253.375 302.3125 C253.07698486 303.77478027 253.07698486 303.77478027 252.77294922 305.26660156 C242.65232806 353.6484774 220.7358123 397.63678269 186.375 433.3125 C185.74287598 433.97185547 185.11075195 434.63121094 184.45947266 435.31054688 C175.31502521 444.79880305 166.01765991 453.5387044 155.375 461.3125 C154.22394983 462.17056152 153.07290823 463.02863451 151.921875 463.88671875 C143.73224019 469.92427396 135.22961724 475.30707302 126.375 480.3125 C125.66778809 480.7146875 124.96057617 481.116875 124.23193359 481.53125 C101.09654164 494.5566741 75.92537591 503.30551461 49.9375 508.625 C49.21860596 508.77235596 48.49971191 508.91971191 47.7590332 509.0715332 C33.08339502 511.86090125 18.55831162 512.66142619 3.64770508 512.62817383 C0.70811513 512.6250221 -2.2304558 512.64854926 -5.16992188 512.67382812 C-18.54306192 512.71848737 -31.43916711 511.51301542 -44.625 509.3125 C-46.33055054 509.03031616 -46.33055054 509.03031616 -48.07055664 508.74243164 C-91.33802759 500.97044532 -132.38793216 480.98345309 -165.625 452.3125 C-166.37007813 451.67828125 -167.11515625 451.0440625 -167.8828125 450.390625 C-181.38779833 438.57948485 -194.05918743 425.82889772 -204.625 411.3125 C-205.48149066 410.16255169 -206.33826433 409.01281411 -207.1953125 407.86328125 C-213.23534209 399.67315742 -218.61867614 391.16870382 -223.625 382.3125 C-224.0271875 381.60528809 -224.429375 380.89807617 -224.84375 380.16943359 C-237.8691741 357.03404164 -246.61801461 331.86287591 -251.9375 305.875 C-252.08485596 305.15610596 -252.23221191 304.43721191 -252.3840332 303.6965332 C-255.35789088 288.05024391 -255.99800362 272.57681954 -255.9375 256.6875 C-255.93534485 255.66959381 -255.9331897 254.65168762 -255.93096924 253.60293579 C-255.88129854 238.99386477 -255.63040191 224.66174147 -252.625 210.3125 C-252.42632324 209.33764648 -252.22764648 208.36279297 -252.02294922 207.35839844 C-241.90232806 158.9765226 -219.9858123 114.98821731 -185.625 79.3125 C-184.99287598 78.65314453 -184.36075195 77.99378906 -183.70947266 77.31445312 C-174.56502521 67.82619695 -165.26765991 59.0862956 -154.625 51.3125 C-153.47394983 50.45443848 -152.32290823 49.59636549 -151.171875 48.73828125 C-142.98224019 42.70072604 -134.47961724 37.31792698 -125.625 32.3125 C-124.91778809 31.9103125 -124.21057617 31.508125 -123.48193359 31.09375 C-100.34654164 18.0683259 -75.17537591 9.31948539 -49.1875 4 C-48.46860596 3.85264404 -47.74971191 3.70528809 -47.0090332 3.5534668 C-31.36274391 0.57960912 -15.88931954 -0.06050362 0 0 Z " fill="#FEF1B7" transform="translate(255.625,-0.3125)"/>
<path d="M0 0 C1.00499218 -0.00445784 2.00998435 -0.00891569 3.04543084 -0.01350862 C4.16290934 -0.01332426 5.28038783 -0.01313989 6.43172932 -0.01294994 C8.19688081 -0.01846498 8.19688081 -0.01846498 9.99769193 -0.02409142 C13.27891775 -0.03324009 16.56009347 -0.03783273 19.84132731 -0.04048073 C23.37452612 -0.04437557 26.90771033 -0.05395458 30.44089985 -0.0626936 C38.98192497 -0.08248319 47.52295133 -0.09252821 56.06399366 -0.10142139 C60.08337591 -0.10580095 64.10275683 -0.11116869 68.12213802 -0.11641026 C81.47952692 -0.13342644 94.83691498 -0.14792071 108.19431305 -0.155159 C111.66296292 -0.15706899 115.13161279 -0.1589893 118.60026264 -0.16094494 C119.46241095 -0.16142868 120.32455925 -0.16191242 121.21283326 -0.16241082 C135.17968772 -0.17071142 149.14645653 -0.19604707 163.11327358 -0.22852562 C177.44415321 -0.26157968 191.7749893 -0.27960633 206.10590726 -0.28280324 C214.15561053 -0.28497007 222.20518898 -0.29374378 230.25485516 -0.31926441 C237.11056718 -0.34094904 243.9661241 -0.349033 250.82186653 -0.33929763 C254.3203734 -0.3347461 257.81856011 -0.33668796 261.31702328 -0.35605907 C265.10960028 -0.37366303 268.90135983 -0.36672739 272.69393635 -0.35352612 C273.80026124 -0.36449536 274.90658613 -0.37546461 276.04643601 -0.38676625 C282.11425549 -0.33562114 285.79150536 0.01292502 290.38029194 4.13422108 C292.07700601 7.52764923 291.5651935 11.38844619 291.58341694 15.12250233 C291.58911701 16.01785191 291.59481709 16.91320148 291.60068989 17.83568287 C291.61014584 19.73295375 291.61667623 21.63024109 291.62052631 23.52753162 C291.63021833 26.42471638 291.66123025 29.32118769 291.69279194 32.21820545 C291.69932337 34.0613002 291.70457329 35.90440002 291.70841694 37.74750233 C291.72076374 38.61224674 291.73311054 39.47699116 291.74583149 40.36793995 C291.72845975 45.07984944 291.5626426 48.38359352 288.38029194 52.13422108 C285.30794333 54.03518526 282.97355331 54.38570918 279.38864708 54.39148998 C278.37706506 54.39793887 277.36548304 54.40438777 276.32324702 54.41103208 C275.21382492 54.40793488 274.10440283 54.40483767 272.96136189 54.40164661 C271.78132538 54.40617773 270.60128888 54.41070884 269.3854937 54.41537726 C266.10908725 54.42585937 262.83281857 54.42734507 259.55640066 54.42498851 C256.02326561 54.42458072 252.49016342 54.43561575 248.95704365 54.44510365 C242.03498805 54.46172217 235.11296652 54.46721355 228.19089264 54.4683284 C222.56554869 54.46927836 216.94021599 54.47338605 211.3148756 54.47972965 C195.37128509 54.4973435 179.42772152 54.50656817 163.48412121 54.5050687 C162.19462147 54.50494884 162.19462147 54.50494884 160.87907124 54.50482655 C160.01835712 54.50474478 159.15764301 54.50466302 158.27084666 54.50457878 C144.31643507 54.50376559 130.36213135 54.52291136 116.40775097 54.55110328 C102.08468531 54.57981213 87.76167229 54.59364471 73.43857712 54.59191573 C65.39510604 54.59125119 57.35174807 54.59677151 49.30830288 54.61827183 C42.4610438 54.63645726 35.61394911 54.64085271 28.76667637 54.62725298 C25.27232924 54.62071019 21.77829773 54.62065284 18.28398037 54.63795948 C14.49777034 54.65330974 10.71239662 54.64417042 6.92620564 54.6286974 C5.26541858 54.64412808 5.26541858 54.64412808 3.57108027 54.65987051 C-3.83396822 54.59271482 -3.83396822 54.59271482 -7.77882767 52.29081631 C-10.31560359 49.31897801 -10.7438202 46.88729211 -10.81257915 43.10931873 C-10.82864208 42.30483295 -10.84470501 41.50034718 -10.86125469 40.67148304 C-10.90585548 37.00282271 -10.94675067 33.33433913 -10.96980572 29.66547108 C-10.98637765 27.73142951 -11.01368399 25.79744949 -11.05183697 23.86371326 C-11.10662902 21.07074796 -11.12848048 18.27921404 -11.14314556 15.48578358 C-11.16581493 14.62417622 -11.18848431 13.76256886 -11.21184063 12.87485218 C-11.19608046 8.39133556 -11.08710674 6.70601994 -8.14949322 3.11224842 C-7.31466412 2.4594994 -6.47983501 1.80675037 -5.61970806 1.13422108 C-4.00172434 -0.48376264 -2.23757781 0.00457755 0 0 Z " fill="#FE9C02" transform="translate(115.61970806121826,228.86577892303467)"/>
<path d="M0 0 C1.23102951 -0.00571014 2.46205902 -0.01142029 3.73039246 -0.01730347 C5.10726919 -0.01854897 6.48414603 -0.01967403 7.86102295 -0.02069092 C9.30131661 -0.02531683 10.74160904 -0.03034118 12.18190002 -0.03573608 C16.10560463 -0.0488865 20.02929211 -0.0553105 23.95301533 -0.05974674 C26.40322667 -0.06267402 28.8534333 -0.06677823 31.30364227 -0.07125092 C38.96616414 -0.08493457 46.62867526 -0.09459622 54.29120851 -0.09845281 C63.14267511 -0.10293186 71.99398716 -0.12046896 80.84540677 -0.1494534 C87.68196977 -0.17106419 94.51848929 -0.18115681 101.35508609 -0.18249393 C105.44039005 -0.18354266 109.5255489 -0.18946441 113.61081696 -0.20731354 C117.45543699 -0.22378325 121.2998027 -0.22595518 125.14444542 -0.21717453 C126.55495319 -0.21640348 127.96547456 -0.22075585 129.37594795 -0.23063278 C131.30308071 -0.24333499 133.23031545 -0.23569004 135.1574707 -0.22705078 C136.23559147 -0.22851734 137.31371223 -0.2299839 138.42450333 -0.2314949 C141.7835213 0.19809821 143.6278258 1.12960816 146.33270264 3.14044189 C148.35273433 6.17048944 148.58519859 6.7664061 148.60736084 10.16534424 C148.61689285 10.96983002 148.62642487 11.7743158 148.63624573 12.60317993 C148.63487862 13.90166367 148.63487862 13.90166367 148.63348389 15.22637939 C148.63776901 16.12031403 148.64205414 17.01424866 148.64646912 17.93527222 C148.6522122 19.82657016 148.65271284 21.7178902 148.64837646 23.60919189 C148.64522212 26.49759836 148.66865608 29.38497501 148.69403076 32.27325439 C148.69630437 34.11179477 148.69700696 35.9503379 148.69598389 37.78887939 C148.70519363 38.65048676 148.71440338 39.51209412 148.72389221 40.39981079 C148.68779182 45.09893218 148.50015189 48.39859867 145.33270264 52.14044189 C141.98527621 54.28830456 139.23573764 54.39559771 135.30464172 54.40786743 C133.45191147 54.42066238 133.45191147 54.42066238 131.56175232 54.43371582 C130.19577014 54.43301682 128.82978805 54.43209378 127.46380615 54.43096924 C126.02306774 54.43695456 124.58233255 54.44376011 123.14160156 54.45132446 C119.23045326 54.46898978 115.31939247 54.47368002 111.40820813 54.47495604 C108.142748 54.47685578 104.87730822 54.48421405 101.61185592 54.49130023 C93.90803586 54.50758323 86.20426254 54.5124692 78.50042725 54.51104736 C70.55348905 54.50984541 62.60682221 54.53095794 54.6599527 54.56253469 C47.83605819 54.58868306 41.01225241 54.59941529 34.18830818 54.59813654 C30.11307258 54.59762655 26.03807822 54.60333022 21.96289253 54.62449265 C18.1304698 54.6438514 14.29851906 54.64401611 10.46607971 54.62945938 C9.06040699 54.62736732 7.6547049 54.63209591 6.24908257 54.6441803 C4.32869702 54.65961968 2.40815071 54.6479316 0.48774719 54.63491821 C-1.12358927 54.63655252 -1.12358927 54.63655252 -2.76747799 54.63821983 C-6.37987518 54.01812203 -8.05148162 52.65570631 -10.66729736 50.14044189 C-11.78967018 47.89569627 -11.81607457 46.6285379 -11.86016846 44.13726807 C-11.87623138 43.312686 -11.89229431 42.48810394 -11.90884399 41.63853455 C-11.95332264 37.86565991 -11.99435999 34.0929608 -12.01739502 30.31988525 C-12.03395287 28.33050843 -12.06124065 26.34119105 -12.09942627 24.35211182 C-12.15422 21.48306435 -12.17607253 18.61541102 -12.19073486 15.74591064 C-12.21340424 14.85929245 -12.23607361 13.97267426 -12.25942993 13.05918884 C-12.2439026 8.51524889 -12.16014648 6.74654207 -9.19708252 3.1026001 C-8.36225342 2.45508789 -7.52742432 1.80757568 -6.66729736 1.14044189 C-4.90419194 -0.62266353 -2.39115863 0.00660673 0 0 Z " fill="#FEBB02" transform="translate(116.66729736328125,299.85955810546875)"/>
<path d="M0 0 C1.22958435 -0.0071553 2.4591687 -0.01431061 3.72601318 -0.02168274 C5.10130285 -0.02452333 6.47659279 -0.02723502 7.85188293 -0.02983093 C9.29055446 -0.03609283 10.72922435 -0.04273938 12.16789246 -0.04974365 C16.08752694 -0.06718248 20.00714919 -0.07771389 23.92681289 -0.08594918 C26.37502172 -0.09109472 28.82322673 -0.09717075 31.27143288 -0.10346031 C38.92914843 -0.12252302 46.58685429 -0.13675014 54.24458903 -0.14507228 C63.08760132 -0.15484057 71.93036301 -0.18114472 80.773287 -0.22157317 C87.60476907 -0.25173452 94.43617935 -0.26654129 101.26772672 -0.26985329 C105.34920273 -0.27220439 109.43041138 -0.28117169 113.51181602 -0.30631447 C117.35402997 -0.3295998 121.19580064 -0.33382681 125.03806686 -0.32355309 C126.44655011 -0.32305767 127.85505519 -0.32937999 129.2634716 -0.34310913 C142.54665732 -0.46532065 142.54665732 -0.46532065 147.33943176 4.14717102 C149.03614584 7.54059917 148.52433332 11.40139614 148.54255676 15.13545227 C148.54825684 16.03080185 148.55395691 16.92615143 148.55982971 17.84863281 C148.56928566 19.74590369 148.57581605 21.64319103 148.57966614 23.54048157 C148.58935815 26.43766632 148.62037007 29.33413764 148.65193176 32.2311554 C148.65846319 34.07425014 148.66371311 35.91734996 148.66755676 37.76045227 C148.67990356 38.62519669 148.69225037 39.4899411 148.70497131 40.38088989 C148.68759957 45.09279939 148.52178242 48.39654346 145.33943176 52.14717102 C142.00001871 54.28733528 139.27025689 54.40031999 135.34933472 54.40786743 C134.12259537 54.41495224 132.89585602 54.42203705 131.63194275 54.42933655 C130.27540551 54.4270428 128.91886863 54.42453312 127.56233215 54.42182922 C126.13144667 54.42617718 124.70056353 54.43136061 123.26968384 54.43731689 C119.38538511 54.45070907 115.50118367 54.45128534 111.61686635 54.4487536 C108.3737756 54.44768405 105.13070454 54.45256683 101.88761801 54.45735902 C94.23653118 54.46845492 86.58549345 54.46889112 78.93440247 54.46284485 C71.04203965 54.45680381 63.14985505 54.46911913 55.25752264 54.49041492 C48.48033832 54.50802913 41.70321073 54.51403257 34.92600435 54.51077718 C30.87876219 54.5089639 26.83164717 54.51160481 22.78442574 54.52549171 C18.97832556 54.53806259 15.17250328 54.53613316 11.36640739 54.52308083 C9.97041607 54.52071387 8.57440523 54.52345403 7.17843628 54.53170395 C5.27115391 54.54216193 3.36379246 54.53227335 1.45651245 54.52139282 C-0.1437625 54.52164443 -0.1437625 54.52164443 -1.77636623 54.52190113 C-5.0927635 54.09101803 -6.9708636 53.10117007 -9.66056824 51.14717102 C-11.48443879 48.42712698 -11.91801775 46.24922758 -11.96696472 43.00874329 C-11.98295212 42.20433304 -11.99893951 41.39992279 -12.01541138 40.57113647 C-12.02077408 39.71064194 -12.02613678 38.8501474 -12.03166199 37.96357727 C-12.04069046 37.07105759 -12.04971893 36.1785379 -12.059021 35.25897217 C-12.07351052 33.37367603 -12.08240701 31.48832976 -12.08610535 29.60298157 C-12.09801325 26.72296898 -12.14721945 23.84509172 -12.19767761 20.9655304 C-12.20714105 19.13155645 -12.21437646 17.29756938 -12.21916199 15.46357727 C-12.23869431 14.60510696 -12.25822662 13.74663666 -12.27835083 12.8621521 C-12.24469849 8.3906842 -12.12082345 6.70932139 -9.18815613 3.12739563 C-8.35405212 2.47392151 -7.51994812 1.82044739 -6.66056824 1.14717102 C-4.89848859 -0.61490863 -2.39042914 0.00949997 0 0 Z " fill="#FD7D02" transform="translate(258.6605682373047,157.8528289794922)"/>
<path d="M0 0 C1.30124062 -0.00006042 1.30124062 -0.00006042 2.62876892 -0.00012207 C4.45514202 0.00521937 6.28151559 0.02274315 8.10766602 0.05175781 C10.89736376 0.09367517 13.68464916 0.09281719 16.47460938 0.0859375 C18.25392296 0.09642908 20.03322416 0.10936701 21.8125 0.125 C22.64282242 0.12520142 23.47314484 0.12540283 24.32862854 0.12561035 C28.9670922 0.22010261 32.08796966 0.57482703 35.83984375 3.59375 C37.8971037 6.67963993 38.09118332 7.32760606 38.09863281 10.81469727 C38.10493713 11.66310684 38.11124146 12.51151642 38.11773682 13.38563538 C38.11368835 14.30122726 38.10963989 15.21681915 38.10546875 16.16015625 C38.10833893 17.58315285 38.10833893 17.58315285 38.11126709 19.03489685 C38.11262904 21.04646062 38.10893194 23.05803317 38.10058594 25.06958008 C38.08996935 28.12016092 38.10043782 31.17014165 38.11328125 34.22070312 C38.11195804 36.17968878 38.10939231 38.13867407 38.10546875 40.09765625 C38.10951721 40.99907852 38.11356567 41.90050079 38.11773682 42.82923889 C38.01776534 56.63288773 34.14759365 67.25894535 24.58984375 77.46875 C17.19350123 84.38790913 8.92177279 88.53506601 -1.16015625 89.59375 C-1.96839844 89.68785156 -2.77664063 89.78195312 -3.609375 89.87890625 C-7.77725785 90.14757969 -9.64521554 89.93003781 -13.22265625 87.59375 C-15.36912912 84.27017911 -15.92913704 82.41065048 -15.62109375 78.5234375 C-14.7381011 74.82684113 -13.32106137 73.66049566 -10.16015625 71.59375 C-7.1724171 70.92933168 -4.19679904 70.5108889 -1.1640625 70.1015625 C5.77493687 68.92851969 10.17361854 65.81761331 14.61328125 60.47265625 C16.04412424 58.28082352 16.89597294 56.02929607 17.83984375 53.59375 C16.98229492 53.61993408 16.12474609 53.64611816 15.24121094 53.6730957 C12.05068186 53.75845597 8.86073568 53.82106513 5.66943359 53.8684082 C4.29000673 53.8935093 2.91071233 53.92759873 1.53173828 53.97094727 C-0.45351497 54.03177875 -2.43974984 54.05732937 -4.42578125 54.08203125 C-6.21677246 54.12130737 -6.21677246 54.12130737 -8.04394531 54.16137695 C-11.16015625 53.59375 -11.16015625 53.59375 -13.54345703 51.6706543 C-15.80660693 47.36342414 -15.77145463 43.67710291 -15.76171875 38.875 C-15.770289 37.93950317 -15.77885925 37.00400635 -15.78768921 36.04016113 C-15.79915048 34.06668326 -15.80019487 32.09312092 -15.79150391 30.11962891 C-15.78517571 27.1030269 -15.83214211 24.09033686 -15.8828125 21.07421875 C-15.8873582 19.15365077 -15.88876561 17.23307227 -15.88671875 15.3125 C-15.90513824 14.41341919 -15.92355774 13.51433838 -15.9425354 12.5880127 C-15.87550763 8.04486316 -15.61619927 6.15996552 -12.68725586 2.5234375 C-8.70125686 -0.17643213 -4.67673446 -0.09257088 0 0 Z " fill="#FEC801" transform="translate(298.16015625,317.40625)"/>
<path d="M0 0 C1.30124062 -0.00006042 1.30124062 -0.00006042 2.62876892 -0.00012207 C4.45514202 0.00521937 6.28151559 0.02274315 8.10766602 0.05175781 C10.89736376 0.09367517 13.68464916 0.09281719 16.47460938 0.0859375 C18.25392296 0.09642908 20.03322416 0.10936701 21.8125 0.125 C22.64282242 0.12520142 23.47314484 0.12540283 24.32862854 0.12561035 C28.9670922 0.22010261 32.08796966 0.57482703 35.83984375 3.59375 C37.90563507 6.69243698 38.09749383 7.41485314 38.14624023 10.93481445 C38.16222763 11.81035477 38.17821503 12.68589508 38.19468689 13.58796692 C38.20004959 14.53475815 38.20541229 15.48154938 38.2109375 16.45703125 C38.22448021 17.93238594 38.22448021 17.93238594 38.23829651 19.43754578 C38.25282019 21.52644811 38.26169099 23.61539614 38.26538086 25.7043457 C38.27715769 28.85645026 38.3262193 32.00651895 38.37695312 35.15820312 C38.49662782 50.01488816 37.33690143 63.11178321 26.83984375 74.59375 C26.32808594 75.19574219 25.81632812 75.79773438 25.2890625 76.41796875 C16.89431665 85.65419271 6.14742536 89.33175227 -6.03515625 89.96875 C-9.25631582 89.90045686 -9.97244744 89.73453161 -12.66015625 87.71875 C-15.37592745 83.87140747 -15.72241604 81.33279679 -15.16015625 76.59375 C-11.04218909 71.58541156 -7.13787124 71.03165522 -0.90625 70.1015625 C5.86648898 68.84913566 10.26781604 65.70420794 14.61328125 60.47265625 C16.04412424 58.28082352 16.89597294 56.02929607 17.83984375 53.59375 C16.98229492 53.61993408 16.12474609 53.64611816 15.24121094 53.6730957 C12.05068186 53.75845597 8.86073568 53.82106513 5.66943359 53.8684082 C4.29000673 53.8935093 2.91071233 53.92759873 1.53173828 53.97094727 C-0.45351497 54.03177875 -2.43974984 54.05732937 -4.42578125 54.08203125 C-6.21677246 54.12130737 -6.21677246 54.12130737 -8.04394531 54.16137695 C-11.16015625 53.59375 -11.16015625 53.59375 -13.54345703 51.6706543 C-15.80660693 47.36342414 -15.77145463 43.67710291 -15.76171875 38.875 C-15.770289 37.93950317 -15.77885925 37.00400635 -15.78768921 36.04016113 C-15.79915048 34.06668326 -15.80019487 32.09312092 -15.79150391 30.11962891 C-15.78517571 27.1030269 -15.83214211 24.09033686 -15.8828125 21.07421875 C-15.8873582 19.15365077 -15.88876561 17.23307227 -15.88671875 15.3125 C-15.90513824 14.41341919 -15.92355774 13.51433838 -15.9425354 12.5880127 C-15.87550763 8.04486316 -15.61619927 6.15996552 -12.68725586 2.5234375 C-8.70125686 -0.17643213 -4.67673446 -0.09257088 0 0 Z " fill="#FEC701" transform="translate(369.16015625,317.40625)"/>
<path d="M0 0 C2.12064174 3.1809626 2.56171736 5.19628785 2.421875 9 C1.82958598 11.80788867 0.40799997 13.40410903 -1.8984375 15.0546875 C-5.4470042 16.65088293 -9.19730958 16.90930537 -13.02734375 17.421875 C-20.15928538 18.80890176 -24.90893522 23.22437914 -29 29 C-29.69722848 30.65411447 -30.36971413 32.31923769 -31 34 C-30.17798096 33.97381592 -29.35596191 33.94763184 -28.5090332 33.9206543 C-24.77705062 33.8165856 -21.0453734 33.75163872 -17.3125 33.6875 C-16.01892578 33.64560547 -14.72535156 33.60371094 -13.39257812 33.56054688 C-11.52182617 33.53637695 -11.52182617 33.53637695 -9.61328125 33.51171875 C-8.46641846 33.48553467 -7.31955566 33.45935059 -6.13793945 33.43237305 C-3 34 -3 34 -0.13037109 35.9230957 C2.84055839 40.21402217 2.73891758 43.60821975 2.69921875 48.71875 C2.70637405 49.65424683 2.71352936 50.58974365 2.72090149 51.55358887 C2.72866932 53.52708993 2.72368579 55.50067709 2.70678711 57.47412109 C2.68755795 60.49090825 2.72695853 63.50308983 2.77148438 66.51953125 C2.77177474 68.4401069 2.76863461 70.36068678 2.76171875 72.28125 C2.77700119 73.18033081 2.79228363 74.07941162 2.80802917 75.0057373 C2.72388379 79.53548738 2.45040426 81.43858061 -0.46142578 85.06811523 C-4.49928789 87.80422761 -8.64253144 87.70276878 -13.37890625 87.62890625 C-14.26859604 87.63131821 -15.15828583 87.63373016 -16.07493591 87.63621521 C-17.94835892 87.63523922 -19.82181166 87.62190488 -21.69506836 87.59692383 C-24.55747613 87.56256031 -27.41680314 87.57629056 -30.27929688 87.59570312 C-32.10417976 87.58880552 -33.92905471 87.5791339 -35.75390625 87.56640625 C-37.03220055 87.57384605 -37.03220055 87.57384605 -38.33631897 87.58143616 C-42.36541887 87.50178866 -44.50889976 87.30095844 -48.01538086 85.15209961 C-50.80214494 82.13016267 -51.12553769 79.67421329 -51.17700195 75.71899414 C-51.18983719 74.8570192 -51.20267242 73.99504425 -51.21589661 73.10694885 C-51.22697701 71.71016151 -51.22697701 71.71016151 -51.23828125 70.28515625 C-51.246353 69.31903915 -51.25442474 68.35292206 -51.26274109 67.35752869 C-51.27658039 65.30729971 -51.28730323 63.25704771 -51.29516602 61.20678711 C-51.30663356 59.1266395 -51.32700141 57.04652009 -51.35668945 54.96655273 C-51.61522556 36.85024911 -50.01984347 23.69034688 -37.375 9.8125 C-29.02218271 1.79571559 -11.22641025 -7.07546864 0 0 Z " fill="#FD7001" transform="translate(227,107)"/>
<path d="M0 0 C2.4915904 3.7373856 2.45793285 5.57331583 2 10 C0.625 12.8125 0.625 12.8125 -2 15 C-4.41157885 15.68650785 -6.80322458 16.09163539 -9.27734375 16.49609375 C-17.15169495 17.95347008 -22.51113938 20.71899785 -27.625 26.90234375 C-29.11978441 29.18273928 -30.02078287 31.46224791 -31 34 C-30.17798096 33.97381592 -29.35596191 33.94763184 -28.5090332 33.9206543 C-24.77705062 33.8165856 -21.0453734 33.75163872 -17.3125 33.6875 C-16.01892578 33.64560547 -14.72535156 33.60371094 -13.39257812 33.56054688 C-11.52182617 33.53637695 -11.52182617 33.53637695 -9.61328125 33.51171875 C-8.46641846 33.48553467 -7.31955566 33.45935059 -6.13793945 33.43237305 C-1.83886867 34.21003893 -0.48644606 35.41738187 2 39 C2.69818826 42.17691454 2.67791471 45.257438 2.62890625 48.5 C2.63131821 49.41330078 2.63373016 50.32660156 2.63621521 51.26757812 C2.6352379 53.19405469 2.62187193 55.12055973 2.59692383 57.046875 C2.56261008 59.99055674 2.57627153 62.93123589 2.59570312 65.875 C2.58880439 67.75001274 2.57913177 69.62501775 2.56640625 71.5 C2.57136612 72.37720703 2.57632599 73.25441406 2.58143616 74.15820312 C2.50207146 78.28950767 2.33908047 80.46197787 0.08959961 84.03125 C-3.87873659 87.77008201 -7.79621673 87.19423821 -12.98828125 87.23828125 C-13.88363083 87.246353 -14.77898041 87.25442474 -15.70146179 87.26274109 C-17.59872499 87.2765843 -19.49601313 87.28730539 -21.39331055 87.29516602 C-24.29068394 87.31237046 -27.18691379 87.35625277 -30.08398438 87.40039062 C-31.92707494 87.41051832 -33.77017521 87.41903418 -35.61328125 87.42578125 C-36.47802567 87.44328934 -37.34277008 87.46079742 -38.23371887 87.47883606 C-42.31264949 87.46417644 -44.46700133 87.32413652 -48.02416992 85.16088867 C-50.76439824 82.16400731 -51.12467755 79.73752768 -51.17700195 75.82666016 C-51.18983719 74.98793365 -51.20267242 74.14920715 -51.21589661 73.2850647 C-51.22328354 72.37888397 -51.23067047 71.47270325 -51.23828125 70.5390625 C-51.246353 69.59751312 -51.25442474 68.65596375 -51.26274109 67.68588257 C-51.276581 65.68692868 -51.28730357 63.68795118 -51.29516602 61.68896484 C-51.30662112 59.66415381 -51.32696868 57.6393714 -51.35668945 55.61474609 C-51.62257233 37.49609051 -50.01906991 23.71573039 -37.375 9.8125 C-29.02218271 1.79571559 -11.22641025 -7.07546864 0 0 Z " fill="#FD7001" transform="translate(156,107)"/>
</svg>
